# Blender3D v249 OBJ File: 
# www.blender3d.org
mtllib myeye100.mtl
v 0.184808 0.058202 0.030260
v 0.085269 -0.165000 0.053653
v -0.042052 -0.166816 0.037378
v -0.127044 -0.072544 0.012880
v -0.135726 0.061161 -0.004637
v -0.042595 0.150381 0.002831
v 0.076261 0.151406 0.014942
v 0.015270 -0.013686 0.054497
v 0.174312 -0.075168 0.043492
v 0.030210 -0.230075 0.021256
v 0.124146 -0.208261 0.033246
v 0.022340 -0.182537 0.047375
v -0.065321 -0.209700 0.003546
v -0.206935 0.079317 -0.055761
v -0.201151 0.040396 -0.043421
v -0.179124 0.113088 -0.048522
v -0.141768 0.153998 -0.043819
v -0.095648 0.115206 -0.003331
v -0.066860 0.194692 -0.029096
v 0.010555 0.211807 -0.022400
v 0.015499 0.168187 0.005797
v 0.094253 0.194913 -0.011129
v 0.178790 0.157652 -0.005879
v 0.133101 0.118004 0.022161
v 0.230818 0.114475 -0.001462
v -0.054513 -0.092975 0.042756
v -0.100202 -0.131361 0.020645
v -0.018152 -0.106918 0.051692
v -0.065381 -0.050718 0.038343
v 0.090193 0.072005 0.039469
v 0.051244 0.085028 0.036221
v 0.101154 0.027256 0.047668
v 0.016604 -0.126437 0.055960
v 0.050251 -0.106544 0.057970
v -0.083087 -0.011355 0.028415
v -0.138049 -0.010447 0.004595
v -0.065538 0.027843 0.028957
v -0.053821 0.071036 0.024190
v -0.017754 0.084630 0.028978
v 0.016685 0.107147 0.027957
v 0.087480 -0.093686 0.057190
v 0.144163 -0.129978 0.047845
v 0.099482 -0.052249 0.055996
v 0.119177 -0.012259 0.050574
v 0.188875 -0.015206 0.038528
v 0.275555 -0.028812 0.012538
v 0.281793 0.024418 0.004238
v 0.262753 -0.092247 0.016220
v 0.222880 -0.151615 0.022036
v -0.159811 -0.161744 -0.021953
v -0.191665 -0.085028 -0.026274
v 0.285773 0.067451 -0.007351
v -0.198985 -0.014478 -0.032207
v 0.046111 -0.125569 -7.479441
v -0.124017 -0.073894 0.357096
v 0.216005 -0.157032 0.033246
v 0.026987 -0.229459 0.033246
v 0.261743 -0.095086 0.022036
vt 0.223432 0.575075
vt 0.255759 0.705984
vt 0.105391 0.709666
vt 0.090936 0.602725
vt 0.963121 0.660392
vt 0.845277 0.565379
vt 1.023023 0.468711
vt 1.023023 0.297699
vt 1.023023 0.096124
vt 1.074708 0.166285
vt 0.246232 0.338460
vt 0.219908 0.456551
vt 0.098739 0.307684
vt 0.074708 0.466614
vt 0.261320 0.174440
vt 0.341714 0.251956
vt 0.692923 0.237934
vt 0.570732 0.201999
vt 0.623539 0.098382
vt 0.836063 0.159676
vt 0.937513 0.255329
vt 0.771735 0.324684
vt 0.823224 0.428685
vt 0.987543 0.370182
vt 0.679101 0.538319
vt 0.695592 0.460215
vt 0.643886 0.396329
vt 0.605411 0.327633
vt 0.533927 0.320407
vt 0.487018 0.690776
vt 0.509759 0.497977
vt 0.611697 0.663114
vt 0.557756 0.718039
vt 0.578166 0.836253
vt 0.464636 0.827266
vt 0.378086 0.608583
vt 0.415969 0.682052
vt 0.351671 0.787611
vt 0.348868 0.467075
vt 0.330593 0.545754
vt 0.451119 0.198502
vt 0.466253 0.299422
vt 0.412777 0.348067
vt 0.676941 0.624261
vt 0.774521 0.696090
vt 0.352117 0.387602
vt 0.882034 0.763050
vt 0.682908 0.779695
vt 0.736790 0.867154
vt 0.584524 0.935291
vt 0.430514 0.935291
vt 0.267900 0.896819
vt 0.177999 0.838227
vt 1.061135 0.297699
vt 1.061135 0.445654
vt 1.023023 0.368284
vt 0.435639 0.096124
vn -0.535006 0.125076 0.835539
vn -0.518332 0.151539 0.841646
vn 0.329796 0.244390 0.911871
vn 0.291014 0.223600 0.930223
vn -0.530993 -0.131819 0.837061
vn -0.489849 -0.155073 0.857905
vn -0.462535 -0.380714 0.800698
vn -0.410803 -0.365247 0.835366
vn 0.233124 -0.235559 0.943486
vn 0.243060 -0.237538 0.940477
vn 0.277077 -0.092395 0.956395
vn 0.289637 -0.083597 0.953479
vn 0.295936 0.007203 0.955181
vn 0.286875 -0.002293 0.957965
vn 0.296952 0.123103 0.946924
vn 0.301521 0.112299 0.946823
vn 0.159812 0.119222 0.979922
vn 0.174554 0.151171 0.972974
vn 0.178186 0.045512 0.982944
vn 0.171805 0.039764 0.984328
vn 0.157531 -0.008230 0.987480
vn 0.159493 -0.017755 0.987039
vn 0.038418 -0.050687 0.997975
vn 0.129239 -0.053117 0.990190
vn -0.103148 0.217295 0.970641
vn -0.103398 0.202298 0.973850
vn -0.150113 0.334802 0.930254
vn -0.172890 0.306864 0.935919
vn -0.212136 0.178149 0.960865
vn -0.188246 0.158044 0.969322
vn -0.347810 0.235999 0.907377
vn -0.346466 0.195247 0.917518
vn -0.245395 0.114520 0.962635
vn -0.282369 0.113247 0.952598
vn -0.396389 0.052045 0.916606
vn -0.396982 0.052543 0.916321
vn -0.054766 -0.156511 0.986157
vn -0.011834 -0.080694 0.996669
vn -0.203146 -0.150163 0.967565
vn -0.191059 -0.167542 0.967174
vn 0.124806 0.208308 0.970068
vn 0.128866 0.241675 0.961762
vn -0.010398 0.185700 0.982552
vn -0.023726 0.174545 0.984363
vn -0.217604 0.048679 0.974822
vn -0.222275 0.044550 0.973966
vn -0.344463 -0.125887 0.930321
vn -0.278931 -0.116496 0.953219
vn 0.233261 0.325771 0.916222
vn 0.230891 0.370270 0.899772
vn 0.011568 0.510455 0.859827
vn -0.003598 0.542585 0.839993
vn -0.365348 0.404137 0.838566
vn -0.384278 0.407675 0.828330
vn -0.548469 0.222752 0.805955
vn -0.469706 0.202625 0.859255
vn -0.250434 -0.497711 0.830402
vn -0.260449 -0.506933 0.821697
vn -0.013470 -0.436470 0.899618
vn 0.044811 -0.475346 0.878657
vn -0.521116 0.021483 0.853215
vn -0.517772 0.018207 0.855325
vn 0.029706 0.103514 0.994184
vn 0.064914 0.102608 0.992602
vn -0.000812 0.037070 0.999312
vn 0.012220 0.025264 0.999606
vn -0.025959 0.314028 0.949059
vn -0.047441 0.340049 0.939210
vn -0.230331 0.283202 0.930991
vn -0.296175 0.287125 0.910955
vn -0.376973 0.130451 0.916992
vn -0.390135 0.162133 0.906371
vn -0.091411 0.002809 0.995809
vn -0.091556 0.054386 0.994314
vn 0.057805 0.303893 0.950951
vn 0.020167 0.298310 0.954256
vn -0.381223 -0.001497 0.924482
vn -0.394340 -0.058892 0.917076
vn 0.158381 0.458511 0.874461
vn 0.145514 0.453995 0.879042
vn -0.184728 0.505926 0.842564
vn -0.200593 0.515706 0.832953
vn -0.457429 0.319158 0.829998
vn -0.457026 0.322008 0.829119
usemtl Texture1eye100.jpg
s off
f 36/1/1 5/2/1 15/3/1
f 36/1/2 15/3/2 53/4/2
f 25/5/3 1/6/3 47/7/3
f 25/8/4 47/9/4 52/10/4
f 27/11/5 4/12/5 50/13/5
f 4/12/6 51/14/6 50/13/6
f 13/15/7 3/16/7 27/11/7
f 13/15/8 27/11/8 50/13/8
f 42/17/9 2/18/9 11/19/9
f 42/17/10 11/19/10 49/20/10
f 48/21/11 9/22/11 49/20/11
f 9/22/12 42/17/12 49/20/12
f 45/23/13 9/22/13 48/21/13
f 45/23/14 48/21/14 46/24/14
f 47/7/15 1/6/15 45/23/15
f 47/7/16 45/23/16 46/24/16
f 45/23/17 1/6/17 32/25/17
f 45/23/18 32/25/18 44/26/18
f 43/27/19 9/22/19 44/26/19
f 9/22/20 45/23/20 44/26/20
f 42/17/21 9/22/21 41/28/21
f 9/22/22 43/27/22 41/28/22
f 34/29/23 2/18/23 41/28/23
f 2/18/24 42/17/24 41/28/24
f 39/30/25 8/31/25 31/32/25
f 39/30/26 31/32/26 40/33/26
f 21/34/27 6/35/27 40/33/27
f 6/35/28 39/30/28 40/33/28
f 37/36/29 8/31/29 39/30/29
f 37/36/30 39/30/30 38/37/30
f 18/38/31 5/2/31 38/37/31
f 5/2/32 37/36/32 38/37/32
f 29/39/33 8/31/33 37/36/33
f 29/39/34 37/36/34 35/40/34
f 36/1/35 4/12/35 35/40/35
f 4/12/36 29/39/36 35/40/36
f 12/41/37 2/18/37 33/42/37
f 2/18/38 34/29/38 33/42/38
f 28/43/39 3/16/39 33/42/39
f 3/16/40 12/41/40 33/42/40
f 32/25/41 1/6/41 30/44/41
f 1/6/42 24/45/42 30/44/42
f 31/32/43 8/31/43 32/25/43
f 31/32/44 32/25/44 30/44/44
f 28/43/45 8/31/45 29/39/45
f 28/43/46 29/39/46 26/46/46
f 27/11/47 3/16/47 26/46/47
f 3/16/48 28/43/48 26/46/48
f 24/45/49 1/6/49 25/5/49
f 24/45/50 25/5/50 23/47/50
f 21/34/51 7/48/51 22/49/51
f 21/34/52 22/49/52 20/50/52
f 18/38/53 6/35/53 19/51/53
f 18/38/54 19/51/54 17/52/54
f 15/3/55 5/2/55 16/53/55
f 15/54/56 16/55/56 14/56/56
f 12/41/57 3/16/57 10/57/57
f 3/16/58 13/15/58 10/57/58
f 11/19/59 2/18/59 10/57/59
f 2/18/60 12/41/60 10/57/60
f 51/14/61 4/12/61 36/1/61
f 51/14/62 36/1/62 53/4/62
f 32/25/63 8/31/63 43/27/63
f 32/25/64 43/27/64 44/26/64
f 43/27/65 8/31/65 34/29/65
f 43/27/66 34/29/66 41/28/66
f 31/32/67 7/48/67 40/33/67
f 7/48/68 21/34/68 40/33/68
f 39/30/69 6/35/69 38/37/69
f 6/35/70 18/38/70 38/37/70
f 37/36/71 5/2/71 36/1/71
f 37/36/72 36/1/72 35/40/72
f 34/29/73 8/31/73 28/43/73
f 34/29/74 28/43/74 33/42/74
f 24/45/75 7/48/75 30/44/75
f 7/48/76 31/32/76 30/44/76
f 29/39/77 4/12/77 26/46/77
f 4/12/78 27/11/78 26/46/78
f 22/49/79 7/48/79 24/45/79
f 22/49/80 24/45/80 23/47/80
f 19/51/81 6/35/81 20/50/81
f 6/35/82 21/34/82 20/50/82
f 16/53/83 5/2/83 18/38/83
f 16/53/84 18/38/84 17/52/84
